<?xml version="1.0" encoding="UTF-8" standalone="no"?>
<!-- Generator: Adobe Illustrator 19.0.0, SVG Export Plug-In . SVG Version: 6.00 Build 0)  -->

<svg
   xmlns:dc="http://purl.org/dc/elements/1.1/"
   xmlns:cc="http://creativecommons.org/ns#"
   xmlns:rdf="http://www.w3.org/1999/02/22-rdf-syntax-ns#"
   xmlns:svg="http://www.w3.org/2000/svg"
   xmlns="http://www.w3.org/2000/svg"
   xmlns:sodipodi="http://sodipodi.sourceforge.net/DTD/sodipodi-0.dtd"
   xmlns:inkscape="http://www.inkscape.org/namespaces/inkscape"
   version="1.1"
   id="Layer_1"
   x="0px"
   y="0px"
   viewBox="0 0 512 512"
   style="enable-background:new 0 0 512 512;"
   xml:space="preserve"
   sodipodi:docname="draft.svg"
   inkscape:version="0.92.4 (f8dce91, 2019-08-02)"><metadata
   id="metadata69"><rdf:RDF><cc:Work
       rdf:about=""><dc:format>image/svg+xml</dc:format><dc:type
         rdf:resource="http://purl.org/dc/dcmitype/StillImage" /><dc:title></dc:title></cc:Work></rdf:RDF></metadata><defs
   id="defs67" /><sodipodi:namedview
   pagecolor="#ffffff"
   bordercolor="#666666"
   borderopacity="1"
   objecttolerance="10"
   gridtolerance="10"
   guidetolerance="10"
   inkscape:pageopacity="0"
   inkscape:pageshadow="2"
   inkscape:window-width="1853"
   inkscape:window-height="1025"
   id="namedview65"
   showgrid="false"
   inkscape:zoom="0.4609375"
   inkscape:cx="256"
   inkscape:cy="256"
   inkscape:window-x="67"
   inkscape:window-y="27"
   inkscape:window-maximized="1"
   inkscape:current-layer="Layer_1" />
<circle
   style="fill:#324A5E;"
   cx="256"
   cy="256"
   r="256"
   id="circle2" />
<path
   style="fill:#2B3B4E;"
   d="M509.64,290.766l-59.444-59.444l-16.653,17.161l-60.235-60.235l-28.817-6.952l-33.244,21.282  l50.728,50.728l-39.671,0.35L190.34,121.691l-25.566,3.434l-14.932,36.466l92.77,92.77L56.889,256l120.172,120.172l-34.838,22.05  L256,512l0,0C385.591,512,492.675,415.703,509.64,290.766z"
   id="path4" />
<path
   style="fill:#EAA22F;"
   d="M440.385,284.444H113.778v-56.889h326.608c8.132,0,14.726,6.592,14.726,14.726v27.439  C455.111,277.852,448.517,284.444,440.385,284.444z"
   id="path6" />
<path
   style="fill:#E09112;"
   d="M113.778,255.569v28.875h326.608c8.132,0,14.726-6.592,14.726-14.726v-14.15H113.778z"
   id="path8" />
<rect
   x="113.778"
   y="227.556"
   style="fill:#31BAFD;"
   width="302.839"
   height="56.889"
   id="rect10" />
<rect
   x="113.778"
   y="256"
   style="fill:#2B9ED8;"
   width="302.839"
   height="28.444"
   id="rect12" />
<polygon
   style="fill:#FEE187;"
   points="113.778,227.556 56.889,256 113.778,284.444 "
   id="polygon14" />
<polygon
   style="fill:#FFC61B;"
   points="57.751,255.569 56.889,256 113.778,284.444 113.778,255.569 "
   id="polygon16" />
<polygon
   style="fill:#59595B;"
   points="56.889,256 83.466,269.288 83.466,242.712 "
   id="polygon18" />
<polygon
   style="fill:#272525;"
   points="57.751,255.569 56.889,256 83.466,269.288 83.466,255.569 "
   id="polygon20" />






<g
   id="g34">
</g>
<g
   id="g36">
</g>
<g
   id="g38">
</g>
<g
   id="g40">
</g>
<g
   id="g42">
</g>
<g
   id="g44">
</g>
<g
   id="g46">
</g>
<g
   id="g48">
</g>
<g
   id="g50">
</g>
<g
   id="g52">
</g>
<g
   id="g54">
</g>
<g
   id="g56">
</g>
<g
   id="g58">
</g>
<g
   id="g60">
</g>
<g
   id="g62">
</g>
</svg>