<?xml version="1.0" encoding="UTF-8" standalone="no"?>
<!-- Generator: Adobe Illustrator 19.0.0, SVG Export Plug-In . SVG Version: 6.00 Build 0)  -->

<svg
   xmlns:dc="http://purl.org/dc/elements/1.1/"
   xmlns:cc="http://creativecommons.org/ns#"
   xmlns:rdf="http://www.w3.org/1999/02/22-rdf-syntax-ns#"
   xmlns:svg="http://www.w3.org/2000/svg"
   xmlns="http://www.w3.org/2000/svg"
   xmlns:sodipodi="http://sodipodi.sourceforge.net/DTD/sodipodi-0.dtd"
   xmlns:inkscape="http://www.inkscape.org/namespaces/inkscape"
   version="1.1"
   id="Layer_1"
   x="0px"
   y="0px"
   viewBox="0 0 512 512"
   style="enable-background:new 0 0 512 512;"
   xml:space="preserve"
   sodipodi:docname="prompt.svg"
   inkscape:version="0.92.4 (f8dce91, 2019-08-02)"><metadata
   id="metadata3919"><rdf:RDF><cc:Work
       rdf:about=""><dc:format>image/svg+xml</dc:format><dc:type
         rdf:resource="http://purl.org/dc/dcmitype/StillImage" /><dc:title></dc:title></cc:Work></rdf:RDF></metadata><defs
   id="defs3917" /><sodipodi:namedview
   pagecolor="#ffffff"
   bordercolor="#666666"
   borderopacity="1"
   objecttolerance="10"
   gridtolerance="10"
   guidetolerance="10"
   inkscape:pageopacity="0"
   inkscape:pageshadow="2"
   inkscape:window-width="1853"
   inkscape:window-height="1025"
   id="namedview3915"
   showgrid="false"
   inkscape:zoom="1.6484375"
   inkscape:cx="256"
   inkscape:cy="256"
   inkscape:window-x="67"
   inkscape:window-y="27"
   inkscape:window-maximized="1"
   inkscape:current-layer="Layer_1" />
<circle
   style="fill:#F9B54C;"
   cx="256"
   cy="256"
   r="256"
   id="circle3836" />
<path
   style="fill:#F4A200;"
   d="M512,256L369.778,113.778l-112.628,176.7L142.222,398.222L256,512C397.384,512,512,397.384,512,256z"
   id="path3838" />
<polygon
   style="fill:#E9EFF4;"
   points="193.653,113.778 142.222,165.209 142.222,398.222 369.778,398.222 369.778,113.778 "
   id="polygon3840" />
<g
   id="g3846"
   transform="translate(-1.5136719e-5,1.5136719e-5)">
	<rect
   x="255.431"
   y="113.778"
   style="fill:#cfdbe6"
   width="114.347"
   height="284.444"
   id="rect3842" />
	<polygon
   style="fill:#cfdbe6"
   points="193.653,113.778 142.222,165.209 193.653,165.209 "
   id="polygon3844" />
</g>


<path
   style="fill:#324a5e"
   d="m 289.88139,239.44193 -23.957,-15.334 99.668,-155.724001 c 4.234,-6.616 13.029,-8.547 19.646,-4.311 v 0 c 6.616,4.234 8.547,13.029 4.311,19.646 z"
   id="path3876"
   inkscape:connector-curvature="0" />
<path
   style="fill:#2b3b4e"
   d="m 385.45539,64.196929 v 0 c -0.071,-0.045 -0.145,-0.079 -0.217,-0.124 l -107.236,167.753001 12.097,7.742 99.668,-155.726001 c 4.234,-6.616 2.303,-15.411 -4.312,-19.645 z"
   id="path3878"
   inkscape:connector-curvature="0" />
<polygon
   style="fill:#f9b54c"
   points="304.052,334.202 280.095,318.867 276.74,350.492 "
   id="polygon3880"
   transform="translate(-14.17061,-94.75907)" />
<polygon
   style="fill:#f4a200"
   points="276.74,350.492 304.052,334.202 291.955,326.459 276.77,350.217 "
   id="polygon3882"
   transform="translate(-13.95261,-94.63307)" />
<g
   id="g3884">
</g>
<g
   id="g3886">
</g>
<g
   id="g3888">
</g>
<g
   id="g3890">
</g>
<g
   id="g3892">
</g>
<g
   id="g3894">
</g>
<g
   id="g3896">
</g>
<g
   id="g3898">
</g>
<g
   id="g3900">
</g>
<g
   id="g3902">
</g>
<g
   id="g3904">
</g>
<g
   id="g3906">
</g>
<g
   id="g3908">
</g>
<g
   id="g3910">
</g>
<g
   id="g3912">
</g>
</svg>