<?xml version="1.0" encoding="UTF-8" standalone="no"?>
<!-- Generator: Adobe Illustrator 19.0.0, SVG Export Plug-In . SVG Version: 6.00 Build 0)  -->

<svg
   xmlns:dc="http://purl.org/dc/elements/1.1/"
   xmlns:cc="http://creativecommons.org/ns#"
   xmlns:rdf="http://www.w3.org/1999/02/22-rdf-syntax-ns#"
   xmlns:svg="http://www.w3.org/2000/svg"
   xmlns="http://www.w3.org/2000/svg"
   xmlns:sodipodi="http://sodipodi.sourceforge.net/DTD/sodipodi-0.dtd"
   xmlns:inkscape="http://www.inkscape.org/namespaces/inkscape"
   version="1.1"
   id="Layer_1"
   x="0px"
   y="0px"
   viewBox="0 0 512 512"
   style="enable-background:new 0 0 512 512;"
   xml:space="preserve"
   sodipodi:docname="queue.svg"
   inkscape:version="0.92.4 (f8dce91, 2019-08-02)"><metadata
   id="metadata57"><rdf:RDF><cc:Work
       rdf:about=""><dc:format>image/svg+xml</dc:format><dc:type
         rdf:resource="http://purl.org/dc/dcmitype/StillImage" /><dc:title></dc:title></cc:Work></rdf:RDF></metadata><defs
   id="defs55" /><sodipodi:namedview
   pagecolor="#ffffff"
   bordercolor="#666666"
   borderopacity="1"
   objecttolerance="10"
   gridtolerance="10"
   guidetolerance="10"
   inkscape:pageopacity="0"
   inkscape:pageshadow="2"
   inkscape:window-width="1853"
   inkscape:window-height="1025"
   id="namedview53"
   showgrid="false"
   inkscape:zoom="0.4609375"
   inkscape:cx="256"
   inkscape:cy="256"
   inkscape:window-x="67"
   inkscape:window-y="27"
   inkscape:window-maximized="1"
   inkscape:current-layer="layer1" />
<circle
   style="fill:#F9B54C;"
   cx="256"
   cy="256"
   r="256"
   id="circle2" />
<path
   style="fill:#F4A200;"
   d="M512,256c0-3.977-0.103-7.93-0.283-11.862l-97.995-98.225L188.931,306.55l-90.596,36.076  l169.918,169.076C403.947,505.306,512,393.276,512,256z"
   id="path4" />
<path
   style="fill:#F1543F;"
   d="M404.858,142.222H224.321c-6.942,0-12.569,5.627-12.569,12.569v98.266  c0,6.942,5.627,12.569,12.569,12.569h118.937l33.032,33.032v-33.032h28.567c6.942,0,12.569-5.627,12.569-12.569v-98.266  C417.427,147.849,411.8,142.222,404.858,142.222z"
   id="path6" />
<path
   style="fill:#D83E20;"
   d="M404.858,142.222h-90.819v123.404h29.22l33.032,33.032v-33.032h28.567  c6.942,0,12.569-5.627,12.569-12.569v-98.266C417.427,147.849,411.8,142.222,404.858,142.222z"
   id="path8" />
<path
   style="fill:#F4E3C3;"
   d="M107.308,222.96h180.536c6.942,0,12.569,5.627,12.569,12.569v98.268  c0,6.94-5.627,12.569-12.569,12.569H168.907l-33.032,33.032v-33.032h-28.567c-6.942,0-12.569-5.627-12.569-12.569v-98.268  C94.741,228.586,100.368,222.96,107.308,222.96z"
   id="path10" />
<path
   style="fill:#FED8B2;"
   d="M287.846,222.96h-96.778v123.404h96.778c6.942,0,12.569-5.627,12.569-12.569v-98.268  C300.413,228.586,294.786,222.96,287.846,222.96z"
   id="path12" />




<g
   id="g22">
</g>
<g
   id="g24">
</g>
<g
   id="g26">
</g>
<g
   id="g28">
</g>
<g
   id="g30">
</g>
<g
   id="g32">
</g>
<g
   id="g34">
</g>
<g
   id="g36">
</g>
<g
   id="g38">
</g>
<g
   id="g40">
</g>
<g
   id="g42">
</g>
<g
   id="g44">
</g>
<g
   id="g46">
</g>
<g
   id="g48">
</g>
<g
   id="g50">
</g>
<g
   inkscape:groupmode="layer"
   id="layer1"
   inkscape:label="top"><polygon
     style="fill:#386895"
     points="179.922,347.782 167.619,335.479 173.715,329.385 179.922,335.594 200.373,315.145 206.469,321.239 "
     id="polygon18"
     transform="translate(9.009,-41.232)" /></g></svg>