<?xml version="1.0" encoding="UTF-8" standalone="no"?>
<!-- Generator: Adobe Illustrator 19.0.0, SVG Export Plug-In . SVG Version: 6.00 Build 0)  -->

<svg
   xmlns:dc="http://purl.org/dc/elements/1.1/"
   xmlns:cc="http://creativecommons.org/ns#"
   xmlns:rdf="http://www.w3.org/1999/02/22-rdf-syntax-ns#"
   xmlns:svg="http://www.w3.org/2000/svg"
   xmlns="http://www.w3.org/2000/svg"
   xmlns:sodipodi="http://sodipodi.sourceforge.net/DTD/sodipodi-0.dtd"
   xmlns:inkscape="http://www.inkscape.org/namespaces/inkscape"
   version="1.1"
   id="Layer_1"
   x="0px"
   y="0px"
   viewBox="0 0 512 512"
   style="enable-background:new 0 0 512 512;"
   xml:space="preserve"
   sodipodi:docname="revise.svg"
   inkscape:version="0.92.4 (f8dce91, 2019-08-02)"><metadata
   id="metadata67"><rdf:RDF><cc:Work
       rdf:about=""><dc:format>image/svg+xml</dc:format><dc:type
         rdf:resource="http://purl.org/dc/dcmitype/StillImage" /><dc:title></dc:title></cc:Work></rdf:RDF></metadata><defs
   id="defs65" /><sodipodi:namedview
   pagecolor="#ffffff"
   bordercolor="#666666"
   borderopacity="1"
   objecttolerance="10"
   gridtolerance="10"
   guidetolerance="10"
   inkscape:pageopacity="0"
   inkscape:pageshadow="2"
   inkscape:window-width="640"
   inkscape:window-height="480"
   id="namedview63"
   showgrid="false"
   inkscape:zoom="0.4609375"
   inkscape:cx="256"
   inkscape:cy="256"
   inkscape:window-x="67"
   inkscape:window-y="27"
   inkscape:window-maximized="0"
   inkscape:current-layer="Layer_1" />
<circle
   style="fill:#E9EFF4;"
   cx="256"
   cy="256"
   r="256"
   id="circle2" />
<path
   style="fill:#CFDBE6;"
   d="M511.671,269.06L392.495,149.885L197.244,337.167L88.526,368.807l141.926,141.926  c8.404,0.833,16.924,1.265,25.547,1.265C393.006,512,504.872,404.377,511.671,269.06z"
   id="path4" />
<path
   style="fill:#59595B;"
   d="M398.222,341.333H113.778V164.919c0-12.535,10.162-22.697,22.697-22.697h239.049  c12.536,0,22.699,10.162,22.699,22.697V341.333z"
   id="path6" />
<path
   style="fill:#353333;"
   d="M398.222,164.921c0-12.536-10.162-22.699-22.699-22.699H254.131v199.111h144.091V164.921z"
   id="path8" />
<rect
   x="128.431"
   y="158.599"
   style="fill:#31BAFD;"
   width="255.138"
   height="194.801"
   id="rect10" />
<rect
   x="254.138"
   y="158.599"
   style="fill:#2B9ED8;"
   width="129.431"
   height="194.801"
   id="rect12" />
<path
   style="fill:#3F3D3D;"
   d="M415.173,372.364H96.825c-6.347,0-11.493-5.146-11.493-11.493v-20.113  c0-6.347,5.146-11.493,11.493-11.493h318.349c6.347,0,11.493,5.146,11.493,11.493v20.113  C426.667,367.218,421.521,372.364,415.173,372.364z"
   id="path14" />
<path
   style="fill:#272525;"
   d="M415.173,329.266H254.131v43.098h161.042c6.347,0,11.493-5.146,11.493-11.493v-20.113  C426.667,334.412,421.521,329.266,415.173,329.266z"
   id="path16" />
<g
   id="g30">
	<rect
   x="339.058"
   y="190.492"
   style="fill:#2B3B4E;"
   width="24.478"
   height="113.778"
   id="rect18" />
	<rect
   x="272.67"
   y="218.936"
   style="fill:#2B3B4E;"
   width="24.478"
   height="85.333"
   id="rect20" />
	<rect
   x="305.855"
   y="247.38"
   style="fill:#2B3B4E;"
   width="24.478"
   height="56.889"
   id="rect22" />
	<rect
   x="148.463"
   y="247.156"
   style="fill:#2B3B4E;"
   width="85.333"
   height="5.172"
   id="rect24" />
	<rect
   x="148.463"
   y="267.205"
   style="fill:#2B3B4E;"
   width="85.333"
   height="5.172"
   id="rect26" />
	<rect
   x="148.463"
   y="287.237"
   style="fill:#2B3B4E;"
   width="85.333"
   height="5.172"
   id="rect28" />
</g>
<g
   id="g32">
</g>
<g
   id="g34">
</g>
<g
   id="g36">
</g>
<g
   id="g38">
</g>
<g
   id="g40">
</g>
<g
   id="g42">
</g>
<g
   id="g44">
</g>
<g
   id="g46">
</g>
<g
   id="g48">
</g>
<g
   id="g50">
</g>
<g
   id="g52">
</g>
<g
   id="g54">
</g>
<g
   id="g56">
</g>
<g
   id="g58">
</g>
<g
   id="g60">
</g>
</svg>